<?xml version="1.0" encoding="utf-8"?>
<!-- Generator: Adobe Illustrator 22.0.1, SVG Export Plug-In . SVG Version: 6.00 Build 0)  -->
<svg version="1.1" id="Layer_1" xmlns="http://www.w3.org/2000/svg" xmlns:xlink="http://www.w3.org/1999/xlink" x="0px" y="0px"
	 viewBox="0 0 337.5 338.5" style="enable-background:new 0 0 337.5 338.5;" xml:space="preserve">
<style type="text/css">
	.st0{fill:none;stroke:#0C7245;stroke-width:77;stroke-miterlimit:10;}
	.st1{fill:#0C7245;}
	.st2{fill:#FFFFFF;}
</style>
<symbol  id="logo" viewBox="-198.5 -199.1 397.1 398.2">
	<g id="LOGO_1_">
		<circle class="st0" cx="0" cy="0.6" r="160"/>
		<g>
			<g>
				<polygon class="st1" points="99.2,33.9 33.3,33.9 33.3,99.8 -33.3,99.8 -33.3,33.9 -99.2,33.9 -99.2,-32.8 -33.3,-32.8 
					-33.3,-98.6 33.3,-98.6 33.3,-32.8 99.2,-32.8 				"/>
			</g>
		</g>
		<g>
			<g>
				<g>
					<path class="st2" d="M-146.1,53.7l-6.3,2.2l5.6,16l14.8-5.2c1-2.1,1.5-4.8,1.7-8.1c0.1-3.4-0.3-6.5-1.4-9.6
						c-1.3-3.8-3.3-6.9-6-9.2c-2.6-2.3-5.7-3.6-9.2-4c-3.5-0.4-7.1,0.1-10.6,1.3c-3.9,1.4-7,3.4-9.5,6c-2.4,2.7-3.9,5.8-4.5,9.5
						c-0.4,2.8,0,5.9,1.2,9.4c1.6,4.6,3.8,7.8,6.6,9.7c2.8,1.9,6.1,2.6,9.7,2.1l-1.2-7.8c-2,0.1-3.8-0.3-5.3-1.4
						c-1.6-1.1-2.7-2.7-3.5-4.8c-1.1-3.2-1-6.2,0.4-8.8c1.4-2.6,4.2-4.7,8.2-6.1c4.4-1.5,8.1-1.7,10.9-0.6c2.9,1.2,4.9,3.3,6,6.5
						c0.5,1.6,0.8,3.2,0.7,5c-0.1,1.8-0.4,3.4-0.8,4.8l-4.7,1.6L-146.1,53.7z"/>
					<path class="st2" d="M-121.9,73.6l-31.5,23.5l9.9,13.2c2.5,3.3,4.6,5.5,6.3,6.6c1.7,1.1,3.6,1.5,5.7,1.4c2.1-0.2,4.1-1,6-2.4
						c2.4-1.8,3.8-3.9,4.3-6.4c0.5-2.5,0-5.3-1.7-8.3c1.8,0.8,3.5,1.2,5.2,1.4c1.6,0.2,4.2,0.1,7.8-0.2l9-0.8l-5.6-7.5l-10.3,0.6
						c-3.7,0.2-6,0.3-7.1,0.1c-1.1-0.1-2-0.4-2.7-0.9s-1.6-1.5-2.7-2.9l-1-1.3l13.2-9.8L-121.9,73.6z M-135.3,93.4l3.5,4.7
						c2.3,3,3.5,5,3.8,5.9c0.3,0.9,0.3,1.9,0,2.8c-0.3,0.9-0.9,1.7-1.9,2.4c-1.1,0.8-2.1,1.2-3.2,1.1c-1.1-0.1-2.1-0.6-3-1.4
						c-0.5-0.5-1.6-2-3.5-4.5l-3.7-4.9L-135.3,93.4z"/>
					<path class="st2" d="M-95.3,106.2l-23.6,31.5l23.1,17.3l4-5.3l-16.8-12.6l5.2-7l15.6,11.7l4-5.3l-15.6-11.7l6.4-8.6l17.4,13
						l4-5.3L-95.3,106.2z"/>
					<path class="st2" d="M-63.2,128.4l-14,36.8l27,10.2l2.4-6.2l-19.6-7.4l3.1-8.2l18.2,6.9l2.4-6.2l-18.2-6.9l3.8-10l20.3,7.7
						l2.4-6.2L-63.2,128.4z"/>
					<path class="st2" d="M-26.2,140.9l-2.7,39.3l7.6,0.5l17.7-25.1l-1.8,26.2l7.3,0.5l2.7-39.3l-7.9-0.5l-17.4,24.5l1.8-25.6
						L-26.2,140.9z"/>
					<path class="st2" d="M63.1,143.2l6.2-5c-2.6-3.6-5.6-5.9-8.9-6.8c-3.3-1-6.9-0.7-10.8,0.8c-4.8,1.9-8.1,5.1-9.9,9.6
						s-1.6,9.7,0.7,15.5c2.4,6.1,5.8,10.2,10.2,12.4c4.4,2.2,9.2,2.3,14.3,0.3c4.4-1.7,7.5-4.4,9.3-8.2c1-2.2,1.4-4.9,1.1-8.2
						l-7.9,1.1c0.3,2.1,0,3.9-0.9,5.5c-0.9,1.6-2.4,2.8-4.3,3.6c-2.7,1-5.2,0.9-7.7-0.4c-2.4-1.3-4.5-4.1-6.2-8.5
						c-1.8-4.6-2.3-8.3-1.4-10.9c0.9-2.6,2.6-4.4,5.3-5.4c1.9-0.8,3.9-0.8,5.7-0.1S61.4,140.7,63.1,143.2z"/>
					<path class="st2" d="M100.6,100.2l-6.7,5.3l2.9,9.1l-12.2,9.7l-8.1-5l-6.5,5.2l36.3,21.4l6.5-5.2L100.6,100.2z M98.9,121.4
						l4.9,14.8L90.6,128L98.9,121.4z"/>
					<path class="st2" d="M105,94.7l32.4,22.4l9.4-13.6c2.4-3.4,3.8-6.1,4.3-8.1c0.5-2,0.3-3.9-0.5-5.9c-0.8-2-2.2-3.6-4.1-4.9
						c-2.4-1.7-4.9-2.4-7.5-2c-2.6,0.3-5,1.7-7.4,4.3c0.1-2,0-3.7-0.3-5.3c-0.4-1.6-1.3-4-2.7-7.3l-3.6-8.3l-5.3,7.7l3.8,9.5
						c1.4,3.4,2.2,5.6,2.4,6.7s0.2,2,0,2.9c-0.2,0.9-0.9,2-1.9,3.5l-0.9,1.3l-13.5-9.3L105,94.7z M128.1,101.1l3.3-4.8
						c2.1-3.1,3.6-4.9,4.4-5.5c0.8-0.6,1.7-0.9,2.6-0.9s1.9,0.4,2.9,1c1.1,0.8,1.8,1.6,2,2.7c0.3,1,0.1,2.1-0.4,3.3
						c-0.3,0.6-1.3,2.2-3.1,4.8l-3.5,5L128.1,101.1z"/>
					<path class="st2" d="M165,71.2l4.4-13.7c1-3.1,1.5-5.5,1.5-7.3c0-2.4-0.5-4.6-1.7-6.7c-1.2-2.1-2.8-3.9-4.9-5.5
						c-2.1-1.6-5-2.9-8.5-4c-3.1-1-5.9-1.5-8.3-1.4c-3,0.1-5.7,0.7-7.9,1.9c-1.7,0.9-3.2,2.3-4.7,4.3c-1.1,1.5-2,3.6-2.9,6.4
						l-4.5,14.1L165,71.2z M161,61.7l-24.8-7.9l1.8-5.6c0.7-2.1,1.3-3.6,1.8-4.4c0.7-1.1,1.5-2,2.5-2.5s2.4-0.8,4.2-0.8
						c1.8,0,4.2,0.5,7.1,1.4c2.9,0.9,5,1.9,6.4,2.9c1.4,1,2.4,2.1,3,3.3c0.6,1.2,0.8,2.5,0.7,4c-0.1,1.1-0.6,3.2-1.6,6.3L161,61.7z"
						/>
				</g>
			</g>
			<g>
				<g>
					<path class="st2" d="M-96.9-134.6l4.3-6.4c-3.4-2.5-6.8-3.7-10.1-3.6c-3.3,0.1-6.5,1.4-9.7,3.9c-3.9,3.1-6,7-6.4,11.7
						c-0.4,4.7,1.3,9.3,5,13.9c3.9,4.9,8.2,7.6,12.9,8.3s9.1-0.6,13.2-3.9c3.6-2.9,5.7-6.3,6.2-10.2c0.3-2.3-0.1-4.9-1.3-7.8l-7,3.3
						c0.9,1.8,1.1,3.6,0.7,5.3c-0.4,1.8-1.4,3.3-3,4.5c-2.2,1.7-4.6,2.4-7.2,1.9c-2.6-0.5-5.3-2.5-8.1-5.9c-3-3.7-4.4-6.9-4.3-9.5
						c0.1-2.6,1.2-4.8,3.3-6.5c1.6-1.3,3.3-1.9,5.3-1.8C-101.2-137.2-99.2-136.3-96.9-134.6z"/>
					<path class="st2" d="M-52.8-172.5l-7.6,3.2l0.3,9.1l-13.9,5.9l-6.2-6.6l-7.4,3.1l28.2,28.9l7.4-3.1L-52.8-172.5z M-59.9-153.3
						l0.7,14.9l-10.1-10.8L-59.9-153.3z"/>
					<path class="st2" d="M-37.4-176.1l4.7,37.3l7.3-0.9l12.2-26.8l3.1,24.9l7-0.9l-4.7-37.3l-7.6,0.9l-12,26.2l-3-24.3L-37.4-176.1
						z"/>
					<path class="st2" d="M45.5-174.6l-8.2-1.2l-4.5,8l-14.9-2.2l-1.8-8.9l-8-1.2l9,39.3l7.9,1.2L45.5-174.6z M29.5-162l-7.2,13
						l-3-14.5L29.5-162z"/>
					<path class="st2" d="M45.1-135.5l12.7,5.7c2.9,1.3,5.1,2.1,6.8,2.3c2.3,0.3,4.5,0,6.6-0.8c2.1-0.9,4-2.2,5.8-4.1
						c1.7-1.8,3.3-4.4,4.8-7.6c1.3-2.8,2-5.4,2.2-7.8c0.3-2.9,0-5.4-0.9-7.7c-0.7-1.7-1.9-3.4-3.6-4.9c-1.3-1.2-3.2-2.3-5.8-3.5
						l-13-5.9L45.1-135.5z M54.6-138.2l10.2-22.7l5.2,2.3c1.9,0.9,3.3,1.6,4,2.2c1,0.8,1.7,1.7,2.2,2.7c0.4,1,0.5,2.4,0.3,4.1
						c-0.2,1.7-0.9,3.9-2.1,6.6c-1.2,2.6-2.3,4.6-3.5,5.8s-2.3,2-3.5,2.4s-2.5,0.5-3.9,0.2c-1.1-0.2-3-1-5.8-2.2L54.6-138.2z"/>
					<path class="st2" d="M130.5-125l-6.3-5.3l-8,4.4l-11.5-9.7l3.1-8.5l-6.2-5.2l-13,38.2l6.2,5.2L130.5-125z M110.3-122.7
						l-12.9,7.3l5.1-13.9L110.3-122.7z"/>
				</g>
			</g>
		</g>
	</g>
	<g>
		<g>
			<path id="SVGID_x5F_1_x5F_" style="fill:none;" d="M139,0.8c0-78.2-62.6-141.5-139.9-141.5S-140.7-77.3-140.7,0.8
				S-78.1,142.4-0.9,142.4S139,79,139,0.8z"/>
			<text>			<textPath  xlink:href="#SVGID_x5F_1_x5F_" startOffset="166.8293%">
<tspan  class="st2" style="font-family:'Arial-BoldMT'; font-size:54.968px; letter-spacing:101.2;">green card</tspan>			</textPath>
</text>
		</g>
		<g>
			<path id="SVGID_x5F_2_x5F_" style="fill:none;" d="M180.2,0.2c0,99.2-80.6,179.6-180,179.6s-180-80.4-180-179.6
				s80.6-179.6,180-179.6S180.2-99,180.2,0.2z"/>
			<text>			<textPath  xlink:href="#SVGID_x5F_2_x5F_" startOffset="300.1343%">
<tspan  class="st2" style="font-family:'Arial-BoldMT'; font-size:52.4614px; letter-spacing:99.8;">canada</tspan>			</textPath>
</text>
		</g>
	</g>
</symbol>
<use xlink:href="#logo"  width="397.1" height="398.2" x="-198.5" y="-199.1" transform="matrix(0.85 0 0 -0.85 168.7467 169.239)" style="overflow:visible;"/>
</svg>
