<?xml version="1.0" encoding="utf-8"?>
<!-- Generator: Adobe Illustrator 22.0.1, SVG Export Plug-In . SVG Version: 6.00 Build 0)  -->
<svg version="1.1" id="Layer_1" xmlns="http://www.w3.org/2000/svg" xmlns:xlink="http://www.w3.org/1999/xlink" x="0px" y="0px"
	 viewBox="0 0 327.5 92.8" style="enable-background:new 0 0 327.5 92.8;" xml:space="preserve">
<style type="text/css">
	.st0{fill:none;stroke:#0C7245;stroke-width:3.4;stroke-miterlimit:10;}
	.st1{fill:#0C7245;}
</style>
<g>
	<g>
		<g id="Lines_2_">
			<line class="st0" x1="5.3" y1="55.5" x2="322.6" y2="55.5"/>
			<line class="st0" x1="5.3" y1="91.1" x2="322.6" y2="91.1"/>
		</g>
		<g id="LOGO_TEXT_2_">
			<g>
				<path class="st1" d="M32.7,8.6c-2.4-3.5-5.9-5.2-10.5-5.2c-4.4,0-7.9,1.9-10.5,5.6c-2,2.9-2.9,6.6-2.9,11c0,2.2,0.4,4.5,1.2,6.6
					c0.8,2.2,2,3.9,3.5,5.2c1,0.8,1.8,1.3,2.4,1.6c0.7,0.3,1.6,0.6,3,0.9c1.2,0.2,2.1,0.3,2.8,0.3c1,0,2.2-0.1,3.6-0.4
					c0.2,0,0.6-0.1,1.2-0.2c0.6-0.1,0.9-0.3,1-0.4c0,0,0.1-0.1,0.1-0.3s0.1-0.2,0.1-0.2v-4.1c0-2-0.1-4.8-0.3-8.3
					c1.3,0.2,2.7,0.2,4,0.2c1.5,0,2.9-0.1,4.3-0.2c-0.3,2.5-0.4,5.4-0.4,8.7c0,1.4,0.1,3.4,0.2,6c-5.6,1.5-10.2,2.3-13.9,2.3
					c-2.9,0-5.6-0.4-8.1-1.1c-2.6-0.7-4.9-1.8-6.8-3.3c-2-1.5-3.5-3.4-4.7-5.6C0.6,25.5,0,22.9,0,19.9c0-3.2,0.6-6,1.7-8.5
					c1.1-2.5,2.7-4.6,4.7-6.3s4.4-2.9,7-3.8s5.6-1.2,8.6-1.2c4.8,0,9,1.1,12.8,3.2c-0.7,2.3-1.2,4.1-1.5,5.3H32.7z"/>
				<path class="st1" d="M53.5,23.3c-0.8-1.5-1.3-2.4-1.6-2.7c-0.1-0.2-0.3-0.3-0.4-0.3c-0.2,0-0.2,0.1-0.2,0.3c0,1,0,2.6,0.1,4.7
					c0.1,2.1,0.1,3.7,0.1,4.7v1.5c0.1,1.4,0.2,3.3,0.4,5.6c-0.5,0-1.2-0.1-2.2-0.1c-1-0.1-1.7-0.1-2.2-0.1c-0.5,0-1.2,0-2.2,0.1
					c-1,0.1-1.7,0.1-2.2,0.1l0.1-1c0-0.4,0-0.9,0.1-1.3c0-0.5,0-0.8,0.1-1.1s0.1-0.6,0.1-1.1c0.2-2.3,0.2-5.8,0.2-10.5
					c0-1.1,0-2.7,0-4.8c0-2.2,0-3.8,0-4.8c0-2.5-0.1-6.5-0.3-11.8L47,0.7c0.8,0,2.1,0,3.8-0.1c1.7-0.1,3-0.1,3.8-0.1
					c4.3,0,7.1,0.4,8.6,1.1C66.4,3.4,68,6,68,9.4c0,2.5-0.7,4.6-2.2,6.3s-3.5,2.8-6.1,3.3c1.4,2.5,4.5,7.5,9.4,15l1.9,3
					c-0.5,0-1.3-0.1-2.4-0.1c-1.1-0.1-1.9-0.1-2.4-0.1c-1.6,0-3.2,0.1-4.8,0.2l-6.2-10.9L53.5,23.3z M51.4,9.9v4.2
					c0,1.7,0,3-0.1,3.9c2.9,0,5-0.6,6.3-1.9c1.3-1.3,2-3.2,2-5.7c0-1-0.1-1.9-0.2-2.7c-0.2-1-0.6-1.8-1.1-2.4
					c-0.5-0.6-1.1-1-1.8-1.2c-0.7-0.2-1.5-0.3-2.4-0.4c-0.9,0-1.8-0.1-2.7-0.1V9.9z"/>
				<path class="st1" d="M75.8,0.6c1,0,2.3,0.1,4.1,0.2s3.2,0.2,4.4,0.2c1.8,0,3.9,0,6.4-0.1c2.5-0.1,4.4-0.1,5.7-0.1
					c-0.1,0.9-0.1,2.2-0.1,3.9c0.1,0.2,0.1,0.4,0.1,0.7c-5.2-0.4-9.3-0.7-12.2-0.7c-0.1,1.3-0.1,3.1-0.1,5.6c0,0.7,0,1.6,0,2.9
					c0,1.3,0,2.3,0,2.9l12.1-0.4c-0.2,1.1-0.3,1.9-0.3,2.5c0,0.5,0.1,1.2,0.3,2c-3.5-0.3-6.7-0.4-9.5-0.4c-0.3,0-0.7,0-1.3,0
					c-0.6,0-1,0-1.3,0v6.8v6.7c3.3,0,7.4-0.2,12.3-0.7c-0.1,0.9-0.1,2.2-0.1,3.9c0.1,0.2,0.1,0.4,0.1,0.7c-1.1,0-2.7-0.1-4.8-0.2
					c-2.1-0.1-3.7-0.1-4.8-0.1c-0.7,0-1.8,0-3.2,0.1s-2.5,0.1-3.1,0.1c-1,0-2.6,0.1-4.8,0.2c0-0.3,0.1-0.8,0.1-1.5
					c0-0.7,0.1-1.2,0.1-1.5c0-1,0.1-2.7,0.1-4.9c0.1-2.3,0.1-4,0.1-5.1c0-0.9,0-2.2,0-4c0-1.8,0-3.2,0-4V9.8c0-0.9,0-2.3-0.1-4.2
					c-0.1-1.9-0.2-3.3-0.2-4.2V0.6z"/>
				<path class="st1" d="M102.5,0.6c1,0,2.3,0.1,4.1,0.2s3.2,0.2,4.4,0.2c1.8,0,3.9,0,6.4-0.1c2.5-0.1,4.4-0.1,5.7-0.1
					c-0.1,0.9-0.1,2.2-0.1,3.9C123,4.7,123,5,123,5.2c-5.2-0.4-9.3-0.7-12.2-0.7c-0.1,1.3-0.1,3.1-0.1,5.6c0,0.7,0,1.6,0,2.9
					c0,1.3,0,2.3,0,2.9l12.1-0.4c-0.2,1.1-0.3,1.9-0.3,2.5c0,0.5,0.1,1.2,0.3,2c-3.5-0.3-6.7-0.4-9.5-0.4c-0.3,0-0.7,0-1.3,0
					c-0.6,0-1,0-1.3,0v6.8v6.7c3.3,0,7.4-0.2,12.3-0.7c-0.1,0.9-0.1,2.2-0.1,3.9c0.1,0.2,0.1,0.4,0.1,0.7c-1.1,0-2.7-0.1-4.8-0.2
					c-2.1-0.1-3.7-0.1-4.8-0.1c-0.7,0-1.8,0-3.2,0.1s-2.5,0.1-3.1,0.1c-1,0-2.6,0.1-4.8,0.2c0-0.3,0.1-0.8,0.1-1.5
					c0-0.7,0.1-1.2,0.1-1.5c0-1,0.1-2.7,0.1-4.9c0.1-2.3,0.1-4,0.1-5.1c0-0.9,0-2.2,0-4c0-1.8,0-3.2,0-4V9.8c0-0.9,0-2.3-0.1-4.2
					c-0.1-1.9-0.2-3.3-0.2-4.2V0.6z"/>
				<path class="st1" d="M134,37c-0.7-0.1-1.5-0.2-2.1-0.2c-0.8,0-1.6,0.1-2.5,0.2c0.4-3.8,0.6-7.8,0.8-11.9
					c0.1-4.1,0.2-8.6,0.2-13.4c0-0.9,0-2.4,0-4.3c0-1.9,0-3.4,0-4.3c0-1.1,0-1.9-0.1-2.5c1.2,0.2,2,0.3,2.4,0.3
					c0.5,0,1.3-0.1,2.5-0.3c2.1,2.3,4.1,4.5,5.9,6.5s3.9,4.2,6.2,6.6s4.2,4.5,5.8,6.3c1.6,1.7,3.4,3.7,5.2,5.9V14V8
					c0-0.9-0.1-2-0.2-3.3s-0.2-2.4-0.2-3l-0.1-1.1c1.2,0.2,2,0.3,2.4,0.3c0.4,0,0.8,0,1.3-0.1c0.5-0.1,0.9-0.1,1.2-0.2
					c-0.1,1.3-0.2,2.3-0.2,3c-0.2,2.6-0.4,4.8-0.4,6.7c0,1.1-0.1,2-0.1,2.7c0,0.7-0.1,1.5-0.1,2.5c0,1-0.1,1.9-0.1,2.7
					c0,0.8,0,1.5,0,2.1v5.4v11.2c-0.1-0.1-0.3-0.1-0.6-0.1c-0.3-0.1-0.8-0.1-1.5-0.1c-1,0-1.7,0.1-2.3,0.2
					c-6.5-7.6-12.3-14.2-17.5-19.6l-5.7-6.1c-0.1,3.3-0.2,5.7-0.2,7.1v4.9c0,6.1,0.1,10.6,0.3,13.6L134,37z"/>
				<path class="st1" d="M217.9,30.9l-1.2,4.6c-2.9,1.5-6.4,2.2-10.6,2.2c-1.9,0-4.3-0.2-7-0.7c-1.6-0.4-3.6-1.2-5.8-2.6
					c-1.4-1-2.7-2.3-3.8-3.8c-2.2-3-3.4-6.5-3.4-10.6c0-3.2,0.5-6.1,1.4-8.6c0.9-2.5,2.5-4.7,4.8-6.6c3.8-3.2,8.8-4.8,15.1-4.8
					c4,0,7.6,0.8,10.8,2.5c-0.2,0.6-0.4,1.4-0.6,2.5c-0.2,1-0.4,2-0.6,2.9h-0.7c-1-1.4-2.3-2.6-3.9-3.4c-1.6-0.9-3.3-1.3-5-1.3
					c-2.8,0-5.1,0.8-7,2.3c-1.9,1.5-3.3,3.5-4.1,6c-0.9,2.4-1.3,5-1.3,7.7c0,4.4,1,8,3.1,10.8c1.1,1.4,2.6,2.6,4.3,3.3
					s3.5,1.2,5.3,1.2c1.6,0,3.3-0.4,5.1-1.1c1.8-0.7,3.3-1.7,4.5-2.8L217.9,30.9z"/>
				<path class="st1" d="M221.1,36.7l3.9-9.1c4.6-10.4,8.2-19.5,11.1-27.2c0.2,0,0.4,0,0.7,0.1c0.2,0,0.5,0.1,0.8,0.1s0.5,0,0.7,0
					c0.3,0,0.6,0,1-0.1c0.3-0.1,0.7-0.1,1-0.2l0.4,0.9c4.4,11.6,9,23.2,13.9,34.8l0.3,0.6v0.5c-0.5,0-1.3-0.1-2.3-0.1
					c-1-0.1-1.8-0.1-2.3-0.1c-1.5,0-3,0.1-4.4,0.2c-1.5-4.9-2.8-8.5-3.7-10.9c-0.7,0-1.6,0-2.9-0.1s-2.3-0.1-3-0.1
					c-1.4,0-3.5,0.1-6.5,0.2l-0.2,0.7c-0.6,1.7-1.2,3.4-1.9,5.2c-0.6,1.8-1.1,3.4-1.5,5c-0.8-0.2-1.7-0.2-2.5-0.2
					c-0.8,0-1.6,0.1-2.5,0.2V36.7z M231.1,23h9.8c-1.2-3.3-2.8-7.4-4.8-12.5c-1.9,4.3-3.5,8.3-4.8,12L231.1,23z"/>
				<path class="st1" d="M270.2,23.3c-0.8-1.5-1.3-2.4-1.6-2.7c-0.1-0.2-0.3-0.3-0.4-0.3c-0.2,0-0.2,0.1-0.2,0.3c0,1,0,2.6,0.1,4.7
					c0.1,2.1,0.1,3.7,0.1,4.7v1.5c0.1,1.4,0.2,3.3,0.4,5.6c-0.5,0-1.2-0.1-2.2-0.1c-1-0.1-1.7-0.1-2.2-0.1c-0.5,0-1.2,0-2.2,0.1
					c-1,0.1-1.7,0.1-2.2,0.1l0.1-1c0-0.4,0-0.9,0.1-1.3c0-0.5,0-0.8,0.1-1.1c0-0.3,0.1-0.6,0.1-1.1c0.2-2.3,0.2-5.8,0.2-10.5
					c0-1.1,0-2.7,0-4.8c0-2.2,0-3.8,0-4.8c0-2.5-0.1-6.5-0.3-11.8l3.7,0.2c0.8,0,2.1,0,3.8-0.1c1.7-0.1,3-0.1,3.8-0.1
					c4.3,0,7.1,0.4,8.6,1.1c3.1,1.8,4.7,4.4,4.7,7.8c0,2.5-0.7,4.6-2.2,6.3s-3.5,2.8-6.1,3.3c1.4,2.5,4.5,7.5,9.4,15l1.9,3
					c-0.5,0-1.3-0.1-2.4-0.1c-1.1-0.1-1.9-0.1-2.4-0.1c-1.6,0-3.2,0.1-4.8,0.2l-6.1-10.9L270.2,23.3z M268.2,9.9v4.2
					c0,1.7,0,3-0.1,3.9c2.9,0,5-0.6,6.3-1.9c1.3-1.3,2-3.2,2-5.7c0-1-0.1-1.9-0.2-2.7c-0.2-1-0.6-1.8-1.1-2.4
					c-0.5-0.6-1.1-1-1.8-1.2c-0.7-0.2-1.5-0.3-2.4-0.4c-0.9,0-1.8-0.1-2.7-0.1V9.9z"/>
				<path class="st1" d="M299.4,0.7c0.6,0,1.5,0,2.7-0.1c1.2-0.1,2.2-0.1,2.8-0.1c2.6,0,4.5,0.1,5.8,0.2c3.1,0.3,5.6,0.8,7.4,1.5
					c2.1,0.8,3.7,2,5,3.5c2.9,3.2,4.4,7.3,4.4,12.2c0,3-0.5,5.7-1.5,8.1c-1,2.4-2.6,4.5-4.9,6.6c-1.9,1.7-4,2.9-6.1,3.6
					c-2.1,0.7-4.7,1-7.6,1c-3.8,0-6.7,0-8.6-0.1c-0.3-0.1-0.7-0.1-1.3-0.1c-1,0-2.6,0.1-4.7,0.2c0.3-6.2,0.5-12.4,0.5-18.6V13
					c0-0.9,0-2.2-0.1-3.9c-0.1-1.7-0.1-3-0.1-3.9c0-0.8-0.1-1.6-0.1-2.4c0-0.8-0.1-1.6-0.1-2.3C295.7,0.7,297.9,0.7,299.4,0.7z
					 M305,34c2.6,0,4.8-0.3,6.4-1c1.7-0.7,3.2-1.9,4.5-3.8c2-2.9,2.9-6.7,2.9-11.3c0-1.9-0.3-3.8-0.9-5.8s-1.4-3.5-2.6-4.8
					c-1.3-1.4-2.7-2.4-4.3-2.9s-3.6-0.7-5.9-0.7c-0.4,0-1,0-1.8,0.1c-0.8,0.1-1.5,0.1-1.9,0.1c-0.2,6-0.3,14.9-0.3,26.7v3.4
					C302,33.9,303.3,34,305,34z"/>
			</g>
			<g>
				<path class="st1" d="M33.9,70c0,0.4,0,1-0.1,1.8c0,0.8-0.1,1.5-0.1,2c0,0.6,0,1.3,0.1,2.1c0,0.8,0.1,1.5,0.1,1.9
					c0,0.3,0,0.8,0.1,1.5c0,0.6,0.1,1.1,0.1,1.4c-0.2,0-0.4,0-0.8-0.1c-0.3,0-0.6,0-0.8,0c-0.6,0-1.2,0-1.7,0.1
					c0.2-2.1,0.3-4.5,0.3-7.2v-1c0-0.4,0-0.9,0-1.4c0-0.5,0-0.9,0-1.1c0-1.1-0.1-2-0.1-2.6c0.8,0.1,1.3,0.1,1.6,0.1s0.8,0,1.6-0.1
					C34,68.5,33.9,69.4,33.9,70z"/>
				<path class="st1" d="M42,80.7c-0.3,0-0.5-0.1-0.8-0.1c-0.3,0-0.6,0-0.9,0.1c0.1-1.4,0.2-2.8,0.3-4.4c0-1.5,0.1-3.1,0.1-4.9
					c0-0.3,0-0.9,0-1.6s0-1.2,0-1.6c0-0.4,0-0.7,0-0.9c0.4,0.1,0.7,0.1,0.9,0.1c0.2,0,0.5,0,0.9-0.1c0.8,0.8,1.5,1.6,2.2,2.4
					s1.4,1.5,2.3,2.4c0.8,0.9,1.5,1.7,2.1,2.3c0.6,0.6,1.2,1.4,1.9,2.1v-4.3v-2.2c0-0.3,0-0.7-0.1-1.2s-0.1-0.9-0.1-1.1l0-0.4
					c0.4,0.1,0.7,0.1,0.9,0.1c0.1,0,0.3,0,0.5,0c0.2,0,0.3,0,0.4-0.1c0,0.5-0.1,0.8-0.1,1.1c-0.1,0.9-0.1,1.8-0.2,2.5
					c0,0.4,0,0.7,0,1c0,0.3,0,0.6,0,0.9c0,0.4,0,0.7,0,1c0,0.3,0,0.6,0,0.8v2v4.1c0,0-0.1,0-0.2,0c-0.1,0-0.3,0-0.5,0
					c-0.4,0-0.6,0-0.8,0.1c-2.4-2.8-4.5-5.2-6.4-7.2l-2.1-2.2c0,1.2-0.1,2.1-0.1,2.6v1.8c0,2.2,0,3.9,0.1,5L42,80.7z"/>
				<path class="st1" d="M58.5,67.4c0.4,0,0.8,0,1.5,0.1c0.6,0,1.2,0.1,1.6,0.1c0.7,0,1.4,0,2.3,0c0.9,0,1.6,0,2.1-0.1
					c0,0.3,0,0.8,0,1.4c0,0.1,0,0.1,0,0.2c-1.9-0.2-3.4-0.2-4.4-0.2c0,0.5,0,1.1,0,2c0,0.2,0,0.6,0,1.1c0,0.5,0,0.8,0,1.1l4.4-0.1
					c-0.1,0.4-0.1,0.7-0.1,0.9c0,0.2,0,0.4,0.1,0.7c-1.3-0.1-2.5-0.1-3.5-0.1c-0.1,0-0.3,0-0.5,0c-0.2,0-0.4,0-0.5,0v2.2l0.2,4.1
					c-0.2,0-0.5,0-0.8-0.1c-0.4,0-0.6,0-0.8,0c-0.2,0-0.4,0-0.8,0c-0.4,0-0.6,0-0.8,0.1c0-0.1,0-0.3,0-0.6c0-0.2,0-0.4,0-0.5
					c0-0.4,0-1,0.1-1.8s0-1.4,0-1.9c0-0.3,0-0.8,0-1.5s0-1.2,0-1.5v-2.3c0-0.3,0-0.9-0.1-1.5s-0.1-1.2-0.1-1.5V67.4z"/>
				<path class="st1" d="M83.1,79.2c-1.4,1.2-3.2,1.8-5.4,1.8c-2.2,0-4-0.6-5.3-1.9c-1.3-1.2-1.9-2.9-1.9-5c0-2.2,0.8-3.9,2.3-5.2
					c1.5-1.2,3.2-1.8,5.4-1.8c1.8,0,3.3,0.4,4.5,1.3c1,0.7,1.7,1.6,2.1,2.5c0.4,0.9,0.6,2,0.6,3.1c0,1-0.2,2-0.6,2.9
					C84.4,77.8,83.9,78.6,83.1,79.2z M81.4,77.7c0.6-1,0.8-2.4,0.8-4c0-0.9-0.1-1.8-0.4-2.6s-0.7-1.5-1.4-2s-1.4-0.8-2.3-0.8
					c-0.9,0-1.6,0.2-2.2,0.7c-0.6,0.4-1.1,1-1.4,1.6c-0.5,1-0.7,2.4-0.7,4.2c0,0.9,0.1,1.7,0.4,2.5c0.3,0.8,0.7,1.4,1.3,1.9
					s1.4,0.7,2.3,0.7C79.3,79.9,80.5,79.2,81.4,77.7z"/>
				<path class="st1" d="M94.3,75.7c-0.3-0.5-0.5-0.9-0.6-1c0-0.1-0.1-0.1-0.2-0.1c-0.1,0-0.1,0-0.1,0.1c0,0.4,0,1,0,1.7
					c0,0.8,0,1.3,0,1.7v0.5c0,0.5,0.1,1.2,0.2,2c-0.2,0-0.4,0-0.8-0.1c-0.4,0-0.6,0-0.8,0c-0.2,0-0.4,0-0.8,0c-0.4,0-0.6,0-0.8,0.1
					l0-0.4c0-0.2,0-0.3,0-0.5c0-0.2,0-0.3,0-0.4s0-0.2,0-0.4c0.1-0.8,0.1-2.1,0.1-3.8c0-0.4,0-1,0-1.8s0-1.4,0-1.8
					c0-0.9,0-2.4-0.1-4.3l1.3,0.1c0.3,0,0.8,0,1.4,0c0.6,0,1.1,0,1.4,0c1.6,0,2.6,0.1,3.1,0.4c1.1,0.7,1.7,1.6,1.7,2.8
					c0,0.9-0.3,1.7-0.8,2.3c-0.5,0.6-1.3,1-2.2,1.2c0.5,0.9,1.6,2.7,3.5,5.5l0.7,1.1c-0.2,0-0.5,0-0.9-0.1c-0.4,0-0.7,0-0.9,0
					c-0.6,0-1.2,0-1.8,0.1l-2.2-4L94.3,75.7z M93.5,70.8v1.5c0,0.6,0,1.1,0,1.4c1.1,0,1.8-0.2,2.3-0.7c0.5-0.5,0.7-1.2,0.7-2.1
					c0-0.4,0-0.7-0.1-1c-0.1-0.4-0.2-0.7-0.4-0.9c-0.2-0.2-0.4-0.3-0.7-0.4s-0.5-0.1-0.9-0.1s-0.7,0-1,0V70.8z"/>
				<path class="st1" d="M106.7,67.4c0.1,0,0.2,0,0.4,0.1c0.2,0,0.3,0.1,0.4,0.1c0.2,0,0.4,0,0.8-0.1c1.1,2.4,2.6,5.5,4.5,9.2
					l1.1-2.2c1.3-2.5,2.4-4.9,3.4-7c0,0,0.1,0,0.1,0s0.1,0,0.1,0c0.7,0,1.1,0,1.5-0.1c0.2,1.8,0.5,4.9,1,9.2c0.1,0.5,0.2,1.2,0.3,2
					s0.2,1.3,0.2,1.4c0,0.1,0,0.2,0.1,0.4c0,0.2,0.1,0.3,0.1,0.4c-0.1,0-0.4,0-0.8-0.1c-0.4,0-0.6,0-0.8,0c-0.2,0-0.4,0-0.8,0
					c-0.3,0-0.6,0-0.8,0.1c-0.1-1.3-0.2-2.8-0.3-4.4c-0.2-1.6-0.3-3.1-0.5-4.6c-2.2,4.5-3.6,7.5-4.3,9h-0.8l-1.5-3.1
					c-0.4-0.8-0.9-1.9-1.5-3.1c-0.6-1.3-1-2.1-1.2-2.5c-0.2,1.4-0.3,2.5-0.4,3.5c-0.1,0.8-0.1,1.6-0.2,2.2c-0.1,0.8-0.1,1.4-0.2,1.9
					c0,0.1,0,0.3,0,0.6s0,0.5,0,0.6c-0.3-0.1-0.6-0.1-0.9-0.1c-0.3,0-0.6,0-0.9,0.1c0-0.2,0.1-0.5,0.2-0.7c0.1-0.4,0.2-0.9,0.3-1.7
					c0.1-0.8,0.2-1.2,0.2-1.3c0.2-1.2,0.4-2.5,0.5-3.8L106.7,67.4z"/>
				<path class="st1" d="M124.6,80.6l1.4-3.3c1.7-3.8,3-7.1,4.1-10c0.1,0,0.1,0,0.2,0s0.2,0,0.3,0c0.1,0,0.2,0,0.2,0
					c0.1,0,0.2,0,0.4,0c0.1,0,0.2,0,0.4-0.1l0.2,0.3c1.6,4.2,3.3,8.5,5.1,12.7l0.1,0.2v0.2c-0.2,0-0.5,0-0.8-0.1c-0.4,0-0.6,0-0.8,0
					c-0.5,0-1.1,0-1.6,0.1c-0.6-1.8-1-3.1-1.4-4c-0.2,0-0.6,0-1.1,0s-0.8,0-1.1,0c-0.5,0-1.3,0-2.4,0.1l-0.1,0.3
					c-0.2,0.6-0.4,1.2-0.7,1.9c-0.2,0.7-0.4,1.3-0.6,1.8c-0.3-0.1-0.6-0.1-0.9-0.1c-0.3,0-0.6,0-0.9,0.1V80.6z M128.3,75.5h3.6
					c-0.4-1.2-1-2.7-1.7-4.6c-0.7,1.6-1.3,3-1.8,4.4L128.3,75.5z"/>
				<path class="st1" d="M147.3,70.2c0,0.5,0,1.4,0,2.4s0,1.9,0,2.4c0,0.3,0,0.7,0,1.2s0,1,0,1.3c0,0.3,0,0.9,0,1.6s0,1.2,0,1.6
					c-0.1,0-0.4,0-0.8-0.1c-0.4,0-0.6,0-0.8,0c-0.2,0-0.4,0-0.8,0c-0.4,0-0.6,0-0.8,0.1c0-0.3,0-0.8,0.1-1.4c0-0.6,0.1-1.1,0.1-1.4
					c0.1-2.8,0.1-5,0.1-6.6c0-0.6,0-1.4-0.1-2.5c-0.4,0-1,0-1.7,0.1c-0.7,0.1-1.4,0.1-1.9,0.2c0.1-0.2,0.1-0.5,0.1-0.8
					c0-0.3,0-0.5,0-0.7c0,0,0-0.1,0-0.1c0-0.1,0-0.1,0-0.1c0.6,0,1.1,0.1,1.5,0.1c1.4,0,2.6,0.1,3.5,0.1h2c0.3,0,0.8,0,1.5-0.1
					c0.6,0,1.2-0.1,1.6-0.1c-0.1,0.3-0.1,0.5-0.1,0.8c0,0.3,0,0.6,0.1,1c-1.2-0.2-2.3-0.3-3.4-0.3L147.3,70.2z"/>
				<path class="st1" d="M158.9,70c0,0.4,0,1-0.1,1.8c0,0.8-0.1,1.5-0.1,2c0,0.6,0,1.3,0.1,2.1c0,0.8,0.1,1.5,0.1,1.9
					c0,0.3,0,0.8,0.1,1.5c0,0.6,0.1,1.1,0.1,1.4c-0.2,0-0.4,0-0.8-0.1c-0.3,0-0.6,0-0.8,0c-0.6,0-1.2,0-1.7,0.1
					c0.2-2.1,0.3-4.5,0.3-7.2v-1c0-0.4,0-0.9,0-1.4c0-0.5,0-0.9,0-1.1c0-1.1-0.1-2-0.1-2.6c0.8,0.1,1.3,0.1,1.6,0.1s0.8,0,1.6-0.1
					C159,68.5,158.9,69.4,158.9,70z"/>
				<path class="st1" d="M177.1,79.2c-1.4,1.2-3.2,1.8-5.4,1.8c-2.2,0-4-0.6-5.3-1.9c-1.3-1.2-1.9-2.9-1.9-5c0-2.2,0.8-3.9,2.3-5.2
					c1.5-1.2,3.2-1.8,5.4-1.8c1.8,0,3.3,0.4,4.5,1.3c1,0.7,1.7,1.6,2.1,2.5c0.4,0.9,0.6,2,0.6,3.1c0,1-0.2,2-0.6,2.9
					C178.4,77.8,177.9,78.6,177.1,79.2z M175.4,77.7c0.6-1,0.8-2.4,0.8-4c0-0.9-0.1-1.8-0.4-2.6c-0.3-0.8-0.7-1.5-1.4-2
					c-0.6-0.5-1.4-0.8-2.3-0.8c-0.9,0-1.6,0.2-2.2,0.7c-0.6,0.4-1.1,1-1.4,1.6c-0.5,1-0.7,2.4-0.7,4.2c0,0.9,0.1,1.7,0.4,2.5
					s0.7,1.4,1.3,1.9s1.4,0.7,2.3,0.7C173.3,79.9,174.5,79.2,175.4,77.7z"/>
				<path class="st1" d="M186.3,80.7c-0.3,0-0.5-0.1-0.8-0.1c-0.3,0-0.6,0-0.9,0.1c0.1-1.4,0.2-2.8,0.3-4.4c0-1.5,0.1-3.1,0.1-4.9
					c0-0.3,0-0.9,0-1.6s0-1.2,0-1.6c0-0.4,0-0.7,0-0.9c0.4,0.1,0.7,0.1,0.9,0.1c0.2,0,0.5,0,0.9-0.1c0.8,0.8,1.5,1.6,2.2,2.4
					s1.4,1.5,2.3,2.4c0.8,0.9,1.5,1.7,2.1,2.3c0.6,0.6,1.2,1.4,1.9,2.1v-4.3v-2.2c0-0.3,0-0.7-0.1-1.2c0-0.5-0.1-0.9-0.1-1.1l0-0.4
					c0.4,0.1,0.7,0.1,0.9,0.1c0.1,0,0.3,0,0.5,0c0.2,0,0.3,0,0.4-0.1c0,0.5-0.1,0.8-0.1,1.1c-0.1,0.9-0.1,1.8-0.2,2.5
					c0,0.4,0,0.7,0,1c0,0.3,0,0.6,0,0.9c0,0.4,0,0.7,0,1c0,0.3,0,0.6,0,0.8v2v4.1c0,0-0.1,0-0.2,0c-0.1,0-0.3,0-0.5,0
					c-0.4,0-0.6,0-0.8,0.1c-2.4-2.8-4.5-5.2-6.4-7.2l-2.1-2.2c0,1.2-0.1,2.1-0.1,2.6v1.8c0,2.2,0,3.9,0.1,5L186.3,80.7z"/>
				<path class="st1" d="M218.5,70c-0.4-1.1-1.2-1.7-2.2-1.7c-0.6,0-1.2,0.2-1.6,0.5c-0.4,0.4-0.6,0.8-0.6,1.3
					c0,0.5,0.2,0.9,0.6,1.2c0.4,0.3,1,0.7,1.9,1.2c0.9,0.4,1.5,0.8,2,1.2c0.5,0.3,0.9,0.8,1.1,1.3c0.2,0.5,0.3,1,0.3,1.7
					c0,0.6-0.1,1.2-0.4,1.8c-0.4,0.8-1.1,1.4-2.1,1.9c-0.7,0.3-1.6,0.5-2.6,0.5c-1.2,0-2.3-0.3-3.1-0.8c0.3-1,0.5-1.8,0.6-2.5h0.4
					c0.2,0.7,0.5,1.2,1,1.5c0.5,0.4,1.1,0.5,1.7,0.5c0.6,0,1.2-0.2,1.6-0.5c0.4-0.3,0.7-0.8,0.7-1.4c0-0.6-0.2-1.1-0.7-1.5
					c-0.6-0.4-1.4-0.8-2.2-1.2c-0.2-0.1-0.5-0.3-0.9-0.5c-0.3-0.2-0.6-0.4-0.7-0.4c-0.4-0.3-0.8-0.7-1-1.2c-0.2-0.5-0.3-1.1-0.3-1.7
					c0-1.3,0.5-2.3,1.5-3.1c0.4-0.4,0.9-0.6,1.4-0.8s1-0.2,1.7-0.2c1.1,0,2.1,0.3,2.9,0.8c0,0,0.1,0.1,0.1,0.1
					c-0.2,0.6-0.4,1.3-0.6,1.9H218.5z"/>
				<path class="st1" d="M225.9,67.5c0.4,0,0.9,0,1.7-0.1c0.1,0.3,0.3,0.6,0.4,0.9c0.1,0.3,0.3,0.6,0.4,0.9c0.2,0.4,0.5,1,0.9,1.8
					c0.2,0.4,0.5,0.9,0.8,1.7c0.2,0.4,0.3,0.6,0.4,0.6c0,0,0,0,0,0c0,0,0.1-0.2,0.3-0.4c0.1-0.2,0.2-0.4,0.3-0.6
					c0.2-0.4,0.6-1.2,1.1-2.3c0.2-0.4,0.4-0.9,0.7-1.6c0.1-0.2,0.2-0.4,0.2-0.6c0.1-0.2,0.2-0.3,0.2-0.4c0,0,0.1,0,0.1,0
					s0.1,0,0.1,0c0.1,0,0.4,0,0.6,0c0.3,0,0.6,0,1-0.1c-0.4,0.7-1,1.8-1.9,3.5c-0.9,1.7-1.6,3-2.1,3.9c0,1-0.1,1.7-0.1,2.2
					c0,0.6,0.1,1.9,0.2,3.7c-0.2,0-0.5,0-0.8-0.1c-0.4,0-0.7,0-0.8,0c-0.6,0-1.1,0-1.6,0.1c0.1-1.4,0.2-2.9,0.2-4.4
					c0-0.3,0-0.6,0-1.1c-0.4-0.6-0.7-1.2-1.1-1.8c-0.3-0.6-0.7-1.2-1-1.9s-0.7-1.4-1.1-2.1s-0.7-1.4-1-1.9
					C224.9,67.4,225.5,67.5,225.9,67.5z"/>
				<path class="st1" d="M246.2,70c-0.4-1.1-1.2-1.7-2.2-1.7c-0.6,0-1.2,0.2-1.6,0.5c-0.4,0.4-0.6,0.8-0.6,1.3
					c0,0.5,0.2,0.9,0.6,1.2c0.4,0.3,1,0.7,1.9,1.2c0.9,0.4,1.5,0.8,2,1.2c0.5,0.3,0.9,0.8,1.1,1.3c0.2,0.5,0.3,1,0.3,1.7
					c0,0.6-0.1,1.2-0.4,1.8c-0.4,0.8-1.1,1.4-2.1,1.9c-0.7,0.3-1.6,0.5-2.6,0.5c-1.2,0-2.3-0.3-3.1-0.8c0.3-1,0.5-1.8,0.6-2.5h0.4
					c0.2,0.7,0.5,1.2,1,1.5c0.5,0.4,1.1,0.5,1.7,0.5c0.6,0,1.2-0.2,1.6-0.5c0.4-0.3,0.7-0.8,0.7-1.4c0-0.6-0.2-1.1-0.7-1.5
					c-0.6-0.4-1.4-0.8-2.2-1.2c-0.2-0.1-0.5-0.3-0.9-0.5c-0.3-0.2-0.6-0.4-0.7-0.4c-0.4-0.3-0.8-0.7-1-1.2c-0.2-0.5-0.3-1.1-0.3-1.7
					c0-1.3,0.5-2.3,1.5-3.1c0.4-0.4,0.9-0.6,1.4-0.8s1-0.2,1.7-0.2c1.1,0,2.1,0.3,2.9,0.8c0,0,0.1,0.1,0.1,0.1
					c-0.2,0.6-0.4,1.3-0.6,1.9H246.2z"/>
				<path class="st1" d="M258.3,70.2c0,0.5,0,1.4,0,2.4s0,1.9,0,2.4c0,0.3,0,0.7,0,1.2s0,1,0,1.3c0,0.3,0,0.9,0,1.6s0,1.2,0,1.6
					c-0.1,0-0.4,0-0.8-0.1c-0.4,0-0.6,0-0.8,0c-0.2,0-0.4,0-0.8,0c-0.4,0-0.6,0-0.8,0.1c0-0.3,0-0.8,0.1-1.4s0.1-1.1,0.1-1.4
					c0.1-2.8,0.1-5,0.1-6.6c0-0.6,0-1.4-0.1-2.5c-0.4,0-1,0-1.7,0.1c-0.7,0.1-1.4,0.1-1.9,0.2c0.1-0.2,0.1-0.5,0.1-0.8
					c0-0.3,0-0.5,0-0.7c0,0,0-0.1,0-0.1c0-0.1,0-0.1,0-0.1c0.6,0,1.1,0.1,1.5,0.1c1.4,0,2.6,0.1,3.5,0.1h2c0.3,0,0.8,0,1.5-0.1
					c0.6,0,1.2-0.1,1.6-0.1c-0.1,0.3-0.1,0.5-0.1,0.8c0,0.3,0,0.6,0.1,1c-1.2-0.2-2.3-0.3-3.5-0.3L258.3,70.2z"/>
				<path class="st1" d="M266.7,67.4c0.4,0,0.8,0,1.5,0.1c0.6,0,1.2,0.1,1.6,0.1c0.7,0,1.4,0,2.3,0c0.9,0,1.6,0,2.1-0.1
					c0,0.3,0,0.8,0,1.4c0,0.1,0,0.1,0,0.2c-1.9-0.2-3.4-0.2-4.4-0.2c0,0.5,0,1.1,0,2c0,0.2,0,0.6,0,1.1c0,0.5,0,0.8,0,1.1l4.4-0.1
					c-0.1,0.4-0.1,0.7-0.1,0.9c0,0.2,0,0.4,0.1,0.7c-1.3-0.1-2.5-0.1-3.5-0.1c-0.1,0-0.3,0-0.5,0s-0.4,0-0.5,0v2.5v2.5
					c1.2,0,2.7-0.1,4.5-0.3c0,0.3,0,0.8,0,1.4c0,0.1,0,0.1,0,0.2c-0.4,0-1,0-1.8-0.1c-0.8,0-1.4-0.1-1.8-0.1c-0.3,0-0.6,0-1.2,0
					s-0.9,0-1.1,0c-0.4,0-0.9,0-1.7,0.1c0-0.1,0-0.3,0-0.6c0-0.2,0-0.4,0-0.5c0-0.4,0-1,0.1-1.8s0-1.4,0-1.9c0-0.3,0-0.8,0-1.5
					s0-1.2,0-1.5v-2.3c0-0.3,0-0.9-0.1-1.5s-0.1-1.2-0.1-1.5V67.4z"/>
				<path class="st1" d="M280.7,67.4c0.1,0,0.2,0,0.4,0.1c0.2,0,0.3,0.1,0.4,0.1c0.2,0,0.4,0,0.8-0.1c1.1,2.4,2.6,5.5,4.5,9.2
					l1.1-2.2c1.3-2.5,2.4-4.9,3.4-7c0,0,0.1,0,0.1,0s0.1,0,0.1,0c0.7,0,1.2,0,1.5-0.1c0.2,1.8,0.5,4.9,1,9.2c0.1,0.5,0.2,1.2,0.3,2
					s0.2,1.3,0.2,1.4c0,0.1,0,0.2,0.1,0.4c0,0.2,0.1,0.3,0.1,0.4c-0.1,0-0.4,0-0.8-0.1c-0.4,0-0.6,0-0.8,0c-0.2,0-0.4,0-0.8,0
					c-0.3,0-0.6,0-0.8,0.1c-0.1-1.3-0.2-2.8-0.3-4.4c-0.2-1.6-0.3-3.1-0.5-4.6c-2.2,4.5-3.6,7.5-4.3,9h-0.8l-1.5-3.1
					c-0.4-0.8-0.9-1.9-1.5-3.1c-0.6-1.3-1-2.1-1.2-2.5c-0.2,1.4-0.3,2.5-0.4,3.5c-0.1,0.8-0.1,1.6-0.2,2.2c-0.1,0.8-0.1,1.4-0.2,1.9
					c0,0.1,0,0.3,0,0.6s0,0.5,0,0.6c-0.3-0.1-0.6-0.1-0.9-0.1c-0.3,0-0.6,0-0.9,0.1c0-0.2,0.1-0.5,0.2-0.7c0.1-0.4,0.2-0.9,0.3-1.7
					c0.1-0.8,0.2-1.2,0.2-1.3c0.2-1.2,0.4-2.5,0.5-3.8L280.7,67.4z"/>
			</g>
		</g>
	</g>
</g>
</svg>
